<?xml version="1.0" encoding="utf-8" standalone="no"?>
<!DOCTYPE svg PUBLIC "-//W3C//DTD SVG 1.1//EN"
  "http://www.w3.org/Graphics/SVG/1.1/DTD/svg11.dtd">
<svg xmlns:xlink="http://www.w3.org/1999/xlink" width="454.760781pt" height="315.542906pt" viewBox="0 0 454.760781 315.542906" xmlns="http://www.w3.org/2000/svg" version="1.1">
 <metadata>
  <rdf:RDF xmlns:dc="http://purl.org/dc/elements/1.1/" xmlns:cc="http://creativecommons.org/ns#" xmlns:rdf="http://www.w3.org/1999/02/22-rdf-syntax-ns#">
   <cc:Work>
    <dc:type rdf:resource="http://purl.org/dc/dcmitype/StillImage"/>
    <dc:date>2026-06-18T07:19:04.507288</dc:date>
    <dc:format>image/svg+xml</dc:format>
    <dc:creator>
     <cc:Agent>
      <dc:title>Matplotlib v3.11.0, https://matplotlib.org/</dc:title>
     </cc:Agent>
    </dc:creator>
   </cc:Work>
  </rdf:RDF>
 </metadata>
 <defs>
  <style type="text/css">*{stroke-linejoin: round; stroke-linecap: butt}</style>
 </defs>
 <g id="figure_1">
  <g id="patch_1">
   <path d="M 0 315.542906 
L 454.760781 315.542906 
L 454.760781 0 
L 0 0 
z
" style="fill: #ffffff"/>
  </g>
  <g id="axes_1">
   <g id="patch_2">
    <path d="M 45.800781 277.342125 
L 447.560781 277.342125 
L 447.560781 22.318125 
L 45.800781 22.318125 
z
" style="fill: #ffffff"/>
   </g>
   <g id="matplotlib.axis_1">
    <g id="xtick_1">
     <g id="line2d_1">
      <path d="M 64.062599 277.342125 
L 64.062599 22.318125 
" clip-path="url(#pccf8abdb13)" style="fill: none; stroke: #b0b0b0; stroke-opacity: 0.3; stroke-width: 0.8; stroke-linecap: square"/>
     </g>
     <g id="line2d_2">
      <defs>
       <path id="mf9e76afecb" d="M 0 0 
L 0 3.5 
" style="stroke: #000000; stroke-width: 0.8"/>
      </defs>
      <g>
       <use xlink:href="#mf9e76afecb" x="64.062599" y="277.342125" style="stroke: #000000; stroke-width: 0.8"/>
      </g>
     </g>
     <g id="text_1">
      <!-- 1 -->
      <g transform="translate(60.881349 291.939781) scale(0.1 -0.1)">
       <defs>
        <path id="DejaVuSans-14" d="M 794 531 
L 1825 531 
L 1825 4091 
L 703 3866 
L 703 4441 
L 1819 4666 
L 2450 4666 
L 2450 531 
L 3481 531 
L 3481 0 
L 794 0 
L 794 531 
z
" transform="scale(0.015625)"/>
       </defs>
       <use xlink:href="#DejaVuSans-14"/>
      </g>
     </g>
    </g>
    <g id="xtick_2">
     <g id="line2d_3">
      <path d="M 100.586236 277.342125 
L 100.586236 22.318125 
" clip-path="url(#pccf8abdb13)" style="fill: none; stroke: #b0b0b0; stroke-opacity: 0.3; stroke-width: 0.8; stroke-linecap: square"/>
     </g>
     <g id="line2d_4">
      <g>
       <use xlink:href="#mf9e76afecb" x="100.586236" y="277.342125" style="stroke: #000000; stroke-width: 0.8"/>
      </g>
     </g>
     <g id="text_2">
      <!-- 2 -->
      <g transform="translate(97.404986 291.939781) scale(0.1 -0.1)">
       <defs>
        <path id="DejaVuSans-15" d="M 1228 531 
L 3431 531 
L 3431 0 
L 469 0 
L 469 531 
Q 828 903 1448 1529 
Q 2069 2156 2228 2338 
Q 2531 2678 2651 2914 
Q 2772 3150 2772 3378 
Q 2772 3750 2511 3984 
Q 2250 4219 1831 4219 
Q 1534 4219 1204 4116 
Q 875 4013 500 3803 
L 500 4441 
Q 881 4594 1212 4672 
Q 1544 4750 1819 4750 
Q 2544 4750 2975 4387 
Q 3406 4025 3406 3419 
Q 3406 3131 3298 2873 
Q 3191 2616 2906 2266 
Q 2828 2175 2409 1742 
Q 1991 1309 1228 531 
z
" transform="scale(0.015625)"/>
       </defs>
       <use xlink:href="#DejaVuSans-15"/>
      </g>
     </g>
    </g>
    <g id="xtick_3">
     <g id="line2d_5">
      <path d="M 137.109872 277.342125 
L 137.109872 22.318125 
" clip-path="url(#pccf8abdb13)" style="fill: none; stroke: #b0b0b0; stroke-opacity: 0.3; stroke-width: 0.8; stroke-linecap: square"/>
     </g>
     <g id="line2d_6">
      <g>
       <use xlink:href="#mf9e76afecb" x="137.109872" y="277.342125" style="stroke: #000000; stroke-width: 0.8"/>
      </g>
     </g>
     <g id="text_3">
      <!-- 4 -->
      <g transform="translate(133.928622 291.939781) scale(0.1 -0.1)">
       <defs>
        <path id="DejaVuSans-17" d="M 2419 4116 
L 825 1625 
L 2419 1625 
L 2419 4116 
z
M 2253 4666 
L 3047 4666 
L 3047 1625 
L 3713 1625 
L 3713 1100 
L 3047 1100 
L 3047 0 
L 2419 0 
L 2419 1100 
L 313 1100 
L 313 1709 
L 2253 4666 
z
" transform="scale(0.015625)"/>
       </defs>
       <use xlink:href="#DejaVuSans-17"/>
      </g>
     </g>
    </g>
    <g id="xtick_4">
     <g id="line2d_7">
      <path d="M 173.633509 277.342125 
L 173.633509 22.318125 
" clip-path="url(#pccf8abdb13)" style="fill: none; stroke: #b0b0b0; stroke-opacity: 0.3; stroke-width: 0.8; stroke-linecap: square"/>
     </g>
     <g id="line2d_8">
      <g>
       <use xlink:href="#mf9e76afecb" x="173.633509" y="277.342125" style="stroke: #000000; stroke-width: 0.8"/>
      </g>
     </g>
     <g id="text_4">
      <!-- 8 -->
      <g transform="translate(170.452259 291.939781) scale(0.1 -0.1)">
       <defs>
        <path id="DejaVuSans-1b" d="M 2034 2216 
Q 1584 2216 1326 1975 
Q 1069 1734 1069 1313 
Q 1069 891 1326 650 
Q 1584 409 2034 409 
Q 2484 409 2743 651 
Q 3003 894 3003 1313 
Q 3003 1734 2745 1975 
Q 2488 2216 2034 2216 
z
M 1403 2484 
Q 997 2584 770 2862 
Q 544 3141 544 3541 
Q 544 4100 942 4425 
Q 1341 4750 2034 4750 
Q 2731 4750 3128 4425 
Q 3525 4100 3525 3541 
Q 3525 3141 3298 2862 
Q 3072 2584 2669 2484 
Q 3125 2378 3379 2068 
Q 3634 1759 3634 1313 
Q 3634 634 3220 271 
Q 2806 -91 2034 -91 
Q 1263 -91 848 271 
Q 434 634 434 1313 
Q 434 1759 690 2068 
Q 947 2378 1403 2484 
z
M 1172 3481 
Q 1172 3119 1398 2916 
Q 1625 2713 2034 2713 
Q 2441 2713 2670 2916 
Q 2900 3119 2900 3481 
Q 2900 3844 2670 4047 
Q 2441 4250 2034 4250 
Q 1625 4250 1398 4047 
Q 1172 3844 1172 3481 
z
" transform="scale(0.015625)"/>
       </defs>
       <use xlink:href="#DejaVuSans-1b"/>
      </g>
     </g>
    </g>
    <g id="xtick_5">
     <g id="line2d_9">
      <path d="M 210.157145 277.342125 
L 210.157145 22.318125 
" clip-path="url(#pccf8abdb13)" style="fill: none; stroke: #b0b0b0; stroke-opacity: 0.3; stroke-width: 0.8; stroke-linecap: square"/>
     </g>
     <g id="line2d_10">
      <g>
       <use xlink:href="#mf9e76afecb" x="210.157145" y="277.342125" style="stroke: #000000; stroke-width: 0.8"/>
      </g>
     </g>
     <g id="text_5">
      <!-- 16 -->
      <g transform="translate(203.794645 291.939781) scale(0.1 -0.1)">
       <defs>
        <path id="DejaVuSans-19" d="M 2113 2584 
Q 1688 2584 1439 2293 
Q 1191 2003 1191 1497 
Q 1191 994 1439 701 
Q 1688 409 2113 409 
Q 2538 409 2786 701 
Q 3034 994 3034 1497 
Q 3034 2003 2786 2293 
Q 2538 2584 2113 2584 
z
M 3366 4563 
L 3366 3988 
Q 3128 4100 2886 4159 
Q 2644 4219 2406 4219 
Q 1781 4219 1451 3797 
Q 1122 3375 1075 2522 
Q 1259 2794 1537 2939 
Q 1816 3084 2150 3084 
Q 2853 3084 3261 2657 
Q 3669 2231 3669 1497 
Q 3669 778 3244 343 
Q 2819 -91 2113 -91 
Q 1303 -91 875 529 
Q 447 1150 447 2328 
Q 447 3434 972 4092 
Q 1497 4750 2381 4750 
Q 2619 4750 2861 4703 
Q 3103 4656 3366 4563 
z
" transform="scale(0.015625)"/>
       </defs>
       <use xlink:href="#DejaVuSans-14"/>
       <use xlink:href="#DejaVuSans-19" transform="translate(63.625 0)"/>
      </g>
     </g>
    </g>
    <g id="xtick_6">
     <g id="line2d_11">
      <path d="M 246.680781 277.342125 
L 246.680781 22.318125 
" clip-path="url(#pccf8abdb13)" style="fill: none; stroke: #b0b0b0; stroke-opacity: 0.3; stroke-width: 0.8; stroke-linecap: square"/>
     </g>
     <g id="line2d_12">
      <g>
       <use xlink:href="#mf9e76afecb" x="246.680781" y="277.342125" style="stroke: #000000; stroke-width: 0.8"/>
      </g>
     </g>
     <g id="text_6">
      <!-- 32 -->
      <g transform="translate(240.318281 291.939781) scale(0.1 -0.1)">
       <defs>
        <path id="DejaVuSans-16" d="M 2597 2516 
Q 3050 2419 3304 2112 
Q 3559 1806 3559 1356 
Q 3559 666 3084 287 
Q 2609 -91 1734 -91 
Q 1441 -91 1130 -33 
Q 819 25 488 141 
L 488 750 
Q 750 597 1062 519 
Q 1375 441 1716 441 
Q 2309 441 2620 675 
Q 2931 909 2931 1356 
Q 2931 1769 2642 2001 
Q 2353 2234 1838 2234 
L 1294 2234 
L 1294 2753 
L 1863 2753 
Q 2328 2753 2575 2939 
Q 2822 3125 2822 3475 
Q 2822 3834 2567 4026 
Q 2313 4219 1838 4219 
Q 1578 4219 1281 4162 
Q 984 4106 628 3988 
L 628 4550 
Q 988 4650 1302 4700 
Q 1616 4750 1894 4750 
Q 2613 4750 3031 4423 
Q 3450 4097 3450 3541 
Q 3450 3153 3228 2886 
Q 3006 2619 2597 2516 
z
" transform="scale(0.015625)"/>
       </defs>
       <use xlink:href="#DejaVuSans-16"/>
       <use xlink:href="#DejaVuSans-15" transform="translate(63.625 0)"/>
      </g>
     </g>
    </g>
    <g id="xtick_7">
     <g id="line2d_13">
      <path d="M 283.204418 277.342125 
L 283.204418 22.318125 
" clip-path="url(#pccf8abdb13)" style="fill: none; stroke: #b0b0b0; stroke-opacity: 0.3; stroke-width: 0.8; stroke-linecap: square"/>
     </g>
     <g id="line2d_14">
      <g>
       <use xlink:href="#mf9e76afecb" x="283.204418" y="277.342125" style="stroke: #000000; stroke-width: 0.8"/>
      </g>
     </g>
     <g id="text_7">
      <!-- 64 -->
      <g transform="translate(276.841918 291.939781) scale(0.1 -0.1)">
       <use xlink:href="#DejaVuSans-19"/>
       <use xlink:href="#DejaVuSans-17" transform="translate(63.625 0)"/>
      </g>
     </g>
    </g>
    <g id="xtick_8">
     <g id="line2d_15">
      <path d="M 319.728054 277.342125 
L 319.728054 22.318125 
" clip-path="url(#pccf8abdb13)" style="fill: none; stroke: #b0b0b0; stroke-opacity: 0.3; stroke-width: 0.8; stroke-linecap: square"/>
     </g>
     <g id="line2d_16">
      <g>
       <use xlink:href="#mf9e76afecb" x="319.728054" y="277.342125" style="stroke: #000000; stroke-width: 0.8"/>
      </g>
     </g>
     <g id="text_8">
      <!-- 128 -->
      <g transform="translate(310.184304 291.939781) scale(0.1 -0.1)">
       <use xlink:href="#DejaVuSans-14"/>
       <use xlink:href="#DejaVuSans-15" transform="translate(63.625 0)"/>
       <use xlink:href="#DejaVuSans-1b" transform="translate(127.25 0)"/>
      </g>
     </g>
    </g>
    <g id="xtick_9">
     <g id="line2d_17">
      <path d="M 356.25169 277.342125 
L 356.25169 22.318125 
" clip-path="url(#pccf8abdb13)" style="fill: none; stroke: #b0b0b0; stroke-opacity: 0.3; stroke-width: 0.8; stroke-linecap: square"/>
     </g>
     <g id="line2d_18">
      <g>
       <use xlink:href="#mf9e76afecb" x="356.25169" y="277.342125" style="stroke: #000000; stroke-width: 0.8"/>
      </g>
     </g>
     <g id="text_9">
      <!-- 256 -->
      <g transform="translate(346.70794 291.939781) scale(0.1 -0.1)">
       <defs>
        <path id="DejaVuSans-18" d="M 691 4666 
L 3169 4666 
L 3169 4134 
L 1269 4134 
L 1269 2991 
Q 1406 3038 1543 3061 
Q 1681 3084 1819 3084 
Q 2600 3084 3056 2656 
Q 3513 2228 3513 1497 
Q 3513 744 3044 326 
Q 2575 -91 1722 -91 
Q 1428 -91 1123 -41 
Q 819 9 494 109 
L 494 744 
Q 775 591 1075 516 
Q 1375 441 1709 441 
Q 2250 441 2565 725 
Q 2881 1009 2881 1497 
Q 2881 1984 2565 2268 
Q 2250 2553 1709 2553 
Q 1456 2553 1204 2497 
Q 953 2441 691 2322 
L 691 4666 
z
" transform="scale(0.015625)"/>
       </defs>
       <use xlink:href="#DejaVuSans-15"/>
       <use xlink:href="#DejaVuSans-18" transform="translate(63.625 0)"/>
       <use xlink:href="#DejaVuSans-19" transform="translate(127.25 0)"/>
      </g>
     </g>
    </g>
    <g id="xtick_10">
     <g id="line2d_19">
      <path d="M 392.775327 277.342125 
L 392.775327 22.318125 
" clip-path="url(#pccf8abdb13)" style="fill: none; stroke: #b0b0b0; stroke-opacity: 0.3; stroke-width: 0.8; stroke-linecap: square"/>
     </g>
     <g id="line2d_20">
      <g>
       <use xlink:href="#mf9e76afecb" x="392.775327" y="277.342125" style="stroke: #000000; stroke-width: 0.8"/>
      </g>
     </g>
     <g id="text_10">
      <!-- 512 -->
      <g transform="translate(383.231577 291.939781) scale(0.1 -0.1)">
       <use xlink:href="#DejaVuSans-18"/>
       <use xlink:href="#DejaVuSans-14" transform="translate(63.625 0)"/>
       <use xlink:href="#DejaVuSans-15" transform="translate(127.25 0)"/>
      </g>
     </g>
    </g>
    <g id="xtick_11">
     <g id="line2d_21">
      <path d="M 429.298963 277.342125 
L 429.298963 22.318125 
" clip-path="url(#pccf8abdb13)" style="fill: none; stroke: #b0b0b0; stroke-opacity: 0.3; stroke-width: 0.8; stroke-linecap: square"/>
     </g>
     <g id="line2d_22">
      <g>
       <use xlink:href="#mf9e76afecb" x="429.298963" y="277.342125" style="stroke: #000000; stroke-width: 0.8"/>
      </g>
     </g>
     <g id="text_11">
      <!-- 1024 -->
      <g transform="translate(416.573963 291.939781) scale(0.1 -0.1)">
       <defs>
        <path id="DejaVuSans-13" d="M 2034 4250 
Q 1547 4250 1301 3770 
Q 1056 3291 1056 2328 
Q 1056 1369 1301 889 
Q 1547 409 2034 409 
Q 2525 409 2770 889 
Q 3016 1369 3016 2328 
Q 3016 3291 2770 3770 
Q 2525 4250 2034 4250 
z
M 2034 4750 
Q 2819 4750 3233 4129 
Q 3647 3509 3647 2328 
Q 3647 1150 3233 529 
Q 2819 -91 2034 -91 
Q 1250 -91 836 529 
Q 422 1150 422 2328 
Q 422 3509 836 4129 
Q 1250 4750 2034 4750 
z
" transform="scale(0.015625)"/>
       </defs>
       <use xlink:href="#DejaVuSans-14"/>
       <use xlink:href="#DejaVuSans-13" transform="translate(63.625 0)"/>
       <use xlink:href="#DejaVuSans-15" transform="translate(127.25 0)"/>
       <use xlink:href="#DejaVuSans-17" transform="translate(190.875 0)"/>
      </g>
     </g>
    </g>
    <g id="text_12">
     <!-- query batch size -->
     <g transform="translate(205.257344 305.940562) scale(0.1 -0.1)">
      <defs>
       <path id="DejaVuSans-54" d="M 947 1747 
Q 947 1113 1208 752 
Q 1469 391 1925 391 
Q 2381 391 2643 752 
Q 2906 1113 2906 1747 
Q 2906 2381 2643 2742 
Q 2381 3103 1925 3103 
Q 1469 3103 1208 2742 
Q 947 2381 947 1747 
z
M 2906 525 
Q 2725 213 2448 61 
Q 2172 -91 1784 -91 
Q 1150 -91 751 415 
Q 353 922 353 1747 
Q 353 2572 751 3078 
Q 1150 3584 1784 3584 
Q 2172 3584 2448 3432 
Q 2725 3281 2906 2969 
L 2906 3500 
L 3481 3500 
L 3481 -1331 
L 2906 -1331 
L 2906 525 
z
" transform="scale(0.015625)"/>
       <path id="DejaVuSans-58" d="M 544 1381 
L 544 3500 
L 1119 3500 
L 1119 1403 
Q 1119 906 1312 657 
Q 1506 409 1894 409 
Q 2359 409 2629 706 
Q 2900 1003 2900 1516 
L 2900 3500 
L 3475 3500 
L 3475 0 
L 2900 0 
L 2900 538 
Q 2691 219 2414 64 
Q 2138 -91 1772 -91 
Q 1169 -91 856 284 
Q 544 659 544 1381 
z
M 1991 3584 
L 1991 3584 
z
" transform="scale(0.015625)"/>
       <path id="DejaVuSans-48" d="M 3597 1894 
L 3597 1613 
L 953 1613 
Q 991 1019 1311 708 
Q 1631 397 2203 397 
Q 2534 397 2845 478 
Q 3156 559 3463 722 
L 3463 178 
Q 3153 47 2828 -22 
Q 2503 -91 2169 -91 
Q 1331 -91 842 396 
Q 353 884 353 1716 
Q 353 2575 817 3079 
Q 1281 3584 2069 3584 
Q 2775 3584 3186 3129 
Q 3597 2675 3597 1894 
z
M 3022 2063 
Q 3016 2534 2758 2815 
Q 2500 3097 2075 3097 
Q 1594 3097 1305 2825 
Q 1016 2553 972 2059 
L 3022 2063 
z
" transform="scale(0.015625)"/>
       <path id="DejaVuSans-55" d="M 2631 2963 
Q 2534 3019 2420 3045 
Q 2306 3072 2169 3072 
Q 1681 3072 1420 2755 
Q 1159 2438 1159 1844 
L 1159 0 
L 581 0 
L 581 3500 
L 1159 3500 
L 1159 2956 
Q 1341 3275 1631 3429 
Q 1922 3584 2338 3584 
Q 2397 3584 2469 3576 
Q 2541 3569 2628 3553 
L 2631 2963 
z
" transform="scale(0.015625)"/>
       <path id="DejaVuSans-5c" d="M 2059 -325 
Q 1816 -950 1584 -1140 
Q 1353 -1331 966 -1331 
L 506 -1331 
L 506 -850 
L 844 -850 
Q 1081 -850 1212 -737 
Q 1344 -625 1503 -206 
L 1606 56 
L 191 3500 
L 800 3500 
L 1894 763 
L 2988 3500 
L 3597 3500 
L 2059 -325 
z
" transform="scale(0.015625)"/>
       <path id="DejaVuSans-3" transform="scale(0.015625)"/>
       <path id="DejaVuSans-45" d="M 3116 1747 
Q 3116 2381 2855 2742 
Q 2594 3103 2138 3103 
Q 1681 3103 1420 2742 
Q 1159 2381 1159 1747 
Q 1159 1113 1420 752 
Q 1681 391 2138 391 
Q 2594 391 2855 752 
Q 3116 1113 3116 1747 
z
M 1159 2969 
Q 1341 3281 1617 3432 
Q 1894 3584 2278 3584 
Q 2916 3584 3314 3078 
Q 3713 2572 3713 1747 
Q 3713 922 3314 415 
Q 2916 -91 2278 -91 
Q 1894 -91 1617 61 
Q 1341 213 1159 525 
L 1159 0 
L 581 0 
L 581 4863 
L 1159 4863 
L 1159 2969 
z
" transform="scale(0.015625)"/>
       <path id="DejaVuSans-44" d="M 2194 1759 
Q 1497 1759 1228 1600 
Q 959 1441 959 1056 
Q 959 750 1161 570 
Q 1363 391 1709 391 
Q 2188 391 2477 730 
Q 2766 1069 2766 1631 
L 2766 1759 
L 2194 1759 
z
M 3341 1997 
L 3341 0 
L 2766 0 
L 2766 531 
Q 2569 213 2275 61 
Q 1981 -91 1556 -91 
Q 1019 -91 701 211 
Q 384 513 384 1019 
Q 384 1609 779 1909 
Q 1175 2209 1959 2209 
L 2766 2209 
L 2766 2266 
Q 2766 2663 2505 2880 
Q 2244 3097 1772 3097 
Q 1472 3097 1187 3025 
Q 903 2953 641 2809 
L 641 3341 
Q 956 3463 1253 3523 
Q 1550 3584 1831 3584 
Q 2591 3584 2966 3190 
Q 3341 2797 3341 1997 
z
" transform="scale(0.015625)"/>
       <path id="DejaVuSans-57" d="M 1172 4494 
L 1172 3500 
L 2356 3500 
L 2356 3053 
L 1172 3053 
L 1172 1153 
Q 1172 725 1289 603 
Q 1406 481 1766 481 
L 2356 481 
L 2356 0 
L 1766 0 
Q 1100 0 847 248 
Q 594 497 594 1153 
L 594 3053 
L 172 3053 
L 172 3500 
L 594 3500 
L 594 4494 
L 1172 4494 
z
" transform="scale(0.015625)"/>
       <path id="DejaVuSans-46" d="M 3122 3366 
L 3122 2828 
Q 2878 2963 2633 3030 
Q 2388 3097 2138 3097 
Q 1578 3097 1268 2742 
Q 959 2388 959 1747 
Q 959 1106 1268 751 
Q 1578 397 2138 397 
Q 2388 397 2633 464 
Q 2878 531 3122 666 
L 3122 134 
Q 2881 22 2623 -34 
Q 2366 -91 2075 -91 
Q 1284 -91 818 406 
Q 353 903 353 1747 
Q 353 2603 823 3093 
Q 1294 3584 2113 3584 
Q 2378 3584 2631 3529 
Q 2884 3475 3122 3366 
z
" transform="scale(0.015625)"/>
       <path id="DejaVuSans-4b" d="M 3513 2113 
L 3513 0 
L 2938 0 
L 2938 2094 
Q 2938 2591 2744 2837 
Q 2550 3084 2163 3084 
Q 1697 3084 1428 2787 
Q 1159 2491 1159 1978 
L 1159 0 
L 581 0 
L 581 4863 
L 1159 4863 
L 1159 2956 
Q 1366 3272 1645 3428 
Q 1925 3584 2291 3584 
Q 2894 3584 3203 3211 
Q 3513 2838 3513 2113 
z
" transform="scale(0.015625)"/>
       <path id="DejaVuSans-56" d="M 2834 3397 
L 2834 2853 
Q 2591 2978 2328 3040 
Q 2066 3103 1784 3103 
Q 1356 3103 1142 2972 
Q 928 2841 928 2578 
Q 928 2378 1081 2264 
Q 1234 2150 1697 2047 
L 1894 2003 
Q 2506 1872 2764 1633 
Q 3022 1394 3022 966 
Q 3022 478 2636 193 
Q 2250 -91 1575 -91 
Q 1294 -91 989 -36 
Q 684 19 347 128 
L 347 722 
Q 666 556 975 473 
Q 1284 391 1588 391 
Q 1994 391 2212 530 
Q 2431 669 2431 922 
Q 2431 1156 2273 1281 
Q 2116 1406 1581 1522 
L 1381 1569 
Q 847 1681 609 1914 
Q 372 2147 372 2553 
Q 372 3047 722 3315 
Q 1072 3584 1716 3584 
Q 2034 3584 2315 3537 
Q 2597 3491 2834 3397 
z
" transform="scale(0.015625)"/>
       <path id="DejaVuSans-4c" d="M 603 3500 
L 1178 3500 
L 1178 0 
L 603 0 
L 603 3500 
z
M 603 4863 
L 1178 4863 
L 1178 4134 
L 603 4134 
L 603 4863 
z
" transform="scale(0.015625)"/>
       <path id="DejaVuSans-5d" d="M 353 3500 
L 3084 3500 
L 3084 2975 
L 922 459 
L 3084 459 
L 3084 0 
L 275 0 
L 275 525 
L 2438 3041 
L 353 3041 
L 353 3500 
z
" transform="scale(0.015625)"/>
      </defs>
      <use xlink:href="#DejaVuSans-54"/>
      <use xlink:href="#DejaVuSans-58" transform="translate(63.484375 0)"/>
      <use xlink:href="#DejaVuSans-48" transform="translate(126.859375 0)"/>
      <use xlink:href="#DejaVuSans-55" transform="translate(188.390625 0)"/>
      <use xlink:href="#DejaVuSans-5c" transform="translate(229.5 0)"/>
      <use xlink:href="#DejaVuSans-3" transform="translate(288.6875 0)"/>
      <use xlink:href="#DejaVuSans-45" transform="translate(320.46875 0)"/>
      <use xlink:href="#DejaVuSans-44" transform="translate(383.953125 0)"/>
      <use xlink:href="#DejaVuSans-57" transform="translate(445.234375 0)"/>
      <use xlink:href="#DejaVuSans-46" transform="translate(484.4375 0)"/>
      <use xlink:href="#DejaVuSans-4b" transform="translate(539.421875 0)"/>
      <use xlink:href="#DejaVuSans-3" transform="translate(602.796875 0)"/>
      <use xlink:href="#DejaVuSans-56" transform="translate(634.578125 0)"/>
      <use xlink:href="#DejaVuSans-4c" transform="translate(686.671875 0)"/>
      <use xlink:href="#DejaVuSans-5d" transform="translate(714.453125 0)"/>
      <use xlink:href="#DejaVuSans-48" transform="translate(766.9375 0)"/>
     </g>
    </g>
   </g>
   <g id="matplotlib.axis_2">
    <g id="ytick_1">
     <g id="line2d_23">
      <path d="M 45.800781 201.37598 
L 447.560781 201.37598 
" clip-path="url(#pccf8abdb13)" style="fill: none; stroke: #b0b0b0; stroke-opacity: 0.3; stroke-width: 0.8; stroke-linecap: square"/>
     </g>
     <g id="line2d_24">
      <defs>
       <path id="m176fdee4bc" d="M 0 0 
L -3.5 0 
" style="stroke: #000000; stroke-width: 0.8"/>
      </defs>
      <g>
       <use xlink:href="#m176fdee4bc" x="45.800781" y="201.37598" style="stroke: #000000; stroke-width: 0.8"/>
      </g>
     </g>
     <g id="text_13">
      <!-- $\mathdefault{10^{2}}$ -->
      <g transform="translate(21.200781 206.07598) scale(0.1 -0.1)">
       <use xlink:href="#DejaVuSans-14" transform="translate(0 0.746875)"/>
       <use xlink:href="#DejaVuSans-13" transform="translate(63.623047 0.746875)"/>
       <use xlink:href="#DejaVuSans-15" transform="translate(128.203125 42.046875) scale(0.7)"/>
      </g>
     </g>
    </g>
    <g id="ytick_2">
     <g id="line2d_25">
      <path d="M 45.800781 113.316632 
L 447.560781 113.316632 
" clip-path="url(#pccf8abdb13)" style="fill: none; stroke: #b0b0b0; stroke-opacity: 0.3; stroke-width: 0.8; stroke-linecap: square"/>
     </g>
     <g id="line2d_26">
      <g>
       <use xlink:href="#m176fdee4bc" x="45.800781" y="113.316632" style="stroke: #000000; stroke-width: 0.8"/>
      </g>
     </g>
     <g id="text_14">
      <!-- $\mathdefault{10^{3}}$ -->
      <g transform="translate(21.200781 118.016632) scale(0.1 -0.1)">
       <use xlink:href="#DejaVuSans-14" transform="translate(0 0.746875)"/>
       <use xlink:href="#DejaVuSans-13" transform="translate(63.623047 0.746875)"/>
       <use xlink:href="#DejaVuSans-16" transform="translate(128.203125 42.046875) scale(0.7)"/>
      </g>
     </g>
    </g>
    <g id="ytick_3">
     <g id="line2d_27">
      <path d="M 45.800781 25.257283 
L 447.560781 25.257283 
" clip-path="url(#pccf8abdb13)" style="fill: none; stroke: #b0b0b0; stroke-opacity: 0.3; stroke-width: 0.8; stroke-linecap: square"/>
     </g>
     <g id="line2d_28">
      <g>
       <use xlink:href="#m176fdee4bc" x="45.800781" y="25.257283" style="stroke: #000000; stroke-width: 0.8"/>
      </g>
     </g>
     <g id="text_15">
      <!-- $\mathdefault{10^{4}}$ -->
      <g transform="translate(21.200781 29.907283) scale(0.1 -0.1)">
       <use xlink:href="#DejaVuSans-14" transform="translate(0 0.665625)"/>
       <use xlink:href="#DejaVuSans-13" transform="translate(63.623047 0.665625)"/>
       <use xlink:href="#DejaVuSans-17" transform="translate(128.203125 41.965625) scale(0.7)"/>
      </g>
     </g>
    </g>
    <g id="ytick_4">
     <g id="line2d_29">
      <path d="M 45.800781 262.926824 
L 447.560781 262.926824 
" clip-path="url(#pccf8abdb13)" style="fill: none; stroke: #b0b0b0; stroke-opacity: 0.3; stroke-width: 0.8; stroke-linecap: square"/>
     </g>
     <g id="line2d_30">
      <defs>
       <path id="me7cf4edb16" d="M 0 0 
L -2 0 
" style="stroke: #000000; stroke-width: 0.6"/>
      </defs>
      <g>
       <use xlink:href="#me7cf4edb16" x="45.800781" y="262.926824" style="stroke: #000000; stroke-width: 0.6"/>
      </g>
     </g>
    </g>
    <g id="ytick_5">
     <g id="line2d_31">
      <path d="M 45.800781 247.420342 
L 447.560781 247.420342 
" clip-path="url(#pccf8abdb13)" style="fill: none; stroke: #b0b0b0; stroke-opacity: 0.3; stroke-width: 0.8; stroke-linecap: square"/>
     </g>
     <g id="line2d_32">
      <g>
       <use xlink:href="#me7cf4edb16" x="45.800781" y="247.420342" style="stroke: #000000; stroke-width: 0.6"/>
      </g>
     </g>
    </g>
    <g id="ytick_6">
     <g id="line2d_33">
      <path d="M 45.800781 236.418318 
L 447.560781 236.418318 
" clip-path="url(#pccf8abdb13)" style="fill: none; stroke: #b0b0b0; stroke-opacity: 0.3; stroke-width: 0.8; stroke-linecap: square"/>
     </g>
     <g id="line2d_34">
      <g>
       <use xlink:href="#me7cf4edb16" x="45.800781" y="236.418318" style="stroke: #000000; stroke-width: 0.6"/>
      </g>
     </g>
    </g>
    <g id="ytick_7">
     <g id="line2d_35">
      <path d="M 45.800781 227.884486 
L 447.560781 227.884486 
" clip-path="url(#pccf8abdb13)" style="fill: none; stroke: #b0b0b0; stroke-opacity: 0.3; stroke-width: 0.8; stroke-linecap: square"/>
     </g>
     <g id="line2d_36">
      <g>
       <use xlink:href="#me7cf4edb16" x="45.800781" y="227.884486" style="stroke: #000000; stroke-width: 0.6"/>
      </g>
     </g>
    </g>
    <g id="ytick_8">
     <g id="line2d_37">
      <path d="M 45.800781 220.911837 
L 447.560781 220.911837 
" clip-path="url(#pccf8abdb13)" style="fill: none; stroke: #b0b0b0; stroke-opacity: 0.3; stroke-width: 0.8; stroke-linecap: square"/>
     </g>
     <g id="line2d_38">
      <g>
       <use xlink:href="#me7cf4edb16" x="45.800781" y="220.911837" style="stroke: #000000; stroke-width: 0.6"/>
      </g>
     </g>
    </g>
    <g id="ytick_9">
     <g id="line2d_39">
      <path d="M 45.800781 215.016546 
L 447.560781 215.016546 
" clip-path="url(#pccf8abdb13)" style="fill: none; stroke: #b0b0b0; stroke-opacity: 0.3; stroke-width: 0.8; stroke-linecap: square"/>
     </g>
     <g id="line2d_40">
      <g>
       <use xlink:href="#me7cf4edb16" x="45.800781" y="215.016546" style="stroke: #000000; stroke-width: 0.6"/>
      </g>
     </g>
    </g>
    <g id="ytick_10">
     <g id="line2d_41">
      <path d="M 45.800781 209.909813 
L 447.560781 209.909813 
" clip-path="url(#pccf8abdb13)" style="fill: none; stroke: #b0b0b0; stroke-opacity: 0.3; stroke-width: 0.8; stroke-linecap: square"/>
     </g>
     <g id="line2d_42">
      <g>
       <use xlink:href="#me7cf4edb16" x="45.800781" y="209.909813" style="stroke: #000000; stroke-width: 0.6"/>
      </g>
     </g>
    </g>
    <g id="ytick_11">
     <g id="line2d_43">
      <path d="M 45.800781 205.405355 
L 447.560781 205.405355 
" clip-path="url(#pccf8abdb13)" style="fill: none; stroke: #b0b0b0; stroke-opacity: 0.3; stroke-width: 0.8; stroke-linecap: square"/>
     </g>
     <g id="line2d_44">
      <g>
       <use xlink:href="#me7cf4edb16" x="45.800781" y="205.405355" style="stroke: #000000; stroke-width: 0.6"/>
      </g>
     </g>
    </g>
    <g id="ytick_12">
     <g id="line2d_45">
      <path d="M 45.800781 174.867475 
L 447.560781 174.867475 
" clip-path="url(#pccf8abdb13)" style="fill: none; stroke: #b0b0b0; stroke-opacity: 0.3; stroke-width: 0.8; stroke-linecap: square"/>
     </g>
     <g id="line2d_46">
      <g>
       <use xlink:href="#me7cf4edb16" x="45.800781" y="174.867475" style="stroke: #000000; stroke-width: 0.6"/>
      </g>
     </g>
    </g>
    <g id="ytick_13">
     <g id="line2d_47">
      <path d="M 45.800781 159.360994 
L 447.560781 159.360994 
" clip-path="url(#pccf8abdb13)" style="fill: none; stroke: #b0b0b0; stroke-opacity: 0.3; stroke-width: 0.8; stroke-linecap: square"/>
     </g>
     <g id="line2d_48">
      <g>
       <use xlink:href="#me7cf4edb16" x="45.800781" y="159.360994" style="stroke: #000000; stroke-width: 0.6"/>
      </g>
     </g>
    </g>
    <g id="ytick_14">
     <g id="line2d_49">
      <path d="M 45.800781 148.35897 
L 447.560781 148.35897 
" clip-path="url(#pccf8abdb13)" style="fill: none; stroke: #b0b0b0; stroke-opacity: 0.3; stroke-width: 0.8; stroke-linecap: square"/>
     </g>
     <g id="line2d_50">
      <g>
       <use xlink:href="#me7cf4edb16" x="45.800781" y="148.35897" style="stroke: #000000; stroke-width: 0.6"/>
      </g>
     </g>
    </g>
    <g id="ytick_15">
     <g id="line2d_51">
      <path d="M 45.800781 139.825137 
L 447.560781 139.825137 
" clip-path="url(#pccf8abdb13)" style="fill: none; stroke: #b0b0b0; stroke-opacity: 0.3; stroke-width: 0.8; stroke-linecap: square"/>
     </g>
     <g id="line2d_52">
      <g>
       <use xlink:href="#me7cf4edb16" x="45.800781" y="139.825137" style="stroke: #000000; stroke-width: 0.6"/>
      </g>
     </g>
    </g>
    <g id="ytick_16">
     <g id="line2d_53">
      <path d="M 45.800781 132.852488 
L 447.560781 132.852488 
" clip-path="url(#pccf8abdb13)" style="fill: none; stroke: #b0b0b0; stroke-opacity: 0.3; stroke-width: 0.8; stroke-linecap: square"/>
     </g>
     <g id="line2d_54">
      <g>
       <use xlink:href="#me7cf4edb16" x="45.800781" y="132.852488" style="stroke: #000000; stroke-width: 0.6"/>
      </g>
     </g>
    </g>
    <g id="ytick_17">
     <g id="line2d_55">
      <path d="M 45.800781 126.957198 
L 447.560781 126.957198 
" clip-path="url(#pccf8abdb13)" style="fill: none; stroke: #b0b0b0; stroke-opacity: 0.3; stroke-width: 0.8; stroke-linecap: square"/>
     </g>
     <g id="line2d_56">
      <g>
       <use xlink:href="#me7cf4edb16" x="45.800781" y="126.957198" style="stroke: #000000; stroke-width: 0.6"/>
      </g>
     </g>
    </g>
    <g id="ytick_18">
     <g id="line2d_57">
      <path d="M 45.800781 121.850464 
L 447.560781 121.850464 
" clip-path="url(#pccf8abdb13)" style="fill: none; stroke: #b0b0b0; stroke-opacity: 0.3; stroke-width: 0.8; stroke-linecap: square"/>
     </g>
     <g id="line2d_58">
      <g>
       <use xlink:href="#me7cf4edb16" x="45.800781" y="121.850464" style="stroke: #000000; stroke-width: 0.6"/>
      </g>
     </g>
    </g>
    <g id="ytick_19">
     <g id="line2d_59">
      <path d="M 45.800781 117.346007 
L 447.560781 117.346007 
" clip-path="url(#pccf8abdb13)" style="fill: none; stroke: #b0b0b0; stroke-opacity: 0.3; stroke-width: 0.8; stroke-linecap: square"/>
     </g>
     <g id="line2d_60">
      <g>
       <use xlink:href="#me7cf4edb16" x="45.800781" y="117.346007" style="stroke: #000000; stroke-width: 0.6"/>
      </g>
     </g>
    </g>
    <g id="ytick_20">
     <g id="line2d_61">
      <path d="M 45.800781 86.808127 
L 447.560781 86.808127 
" clip-path="url(#pccf8abdb13)" style="fill: none; stroke: #b0b0b0; stroke-opacity: 0.3; stroke-width: 0.8; stroke-linecap: square"/>
     </g>
     <g id="line2d_62">
      <g>
       <use xlink:href="#me7cf4edb16" x="45.800781" y="86.808127" style="stroke: #000000; stroke-width: 0.6"/>
      </g>
     </g>
    </g>
    <g id="ytick_21">
     <g id="line2d_63">
      <path d="M 45.800781 71.301645 
L 447.560781 71.301645 
" clip-path="url(#pccf8abdb13)" style="fill: none; stroke: #b0b0b0; stroke-opacity: 0.3; stroke-width: 0.8; stroke-linecap: square"/>
     </g>
     <g id="line2d_64">
      <g>
       <use xlink:href="#me7cf4edb16" x="45.800781" y="71.301645" style="stroke: #000000; stroke-width: 0.6"/>
      </g>
     </g>
    </g>
    <g id="ytick_22">
     <g id="line2d_65">
      <path d="M 45.800781 60.299621 
L 447.560781 60.299621 
" clip-path="url(#pccf8abdb13)" style="fill: none; stroke: #b0b0b0; stroke-opacity: 0.3; stroke-width: 0.8; stroke-linecap: square"/>
     </g>
     <g id="line2d_66">
      <g>
       <use xlink:href="#me7cf4edb16" x="45.800781" y="60.299621" style="stroke: #000000; stroke-width: 0.6"/>
      </g>
     </g>
    </g>
    <g id="ytick_23">
     <g id="line2d_67">
      <path d="M 45.800781 51.765789 
L 447.560781 51.765789 
" clip-path="url(#pccf8abdb13)" style="fill: none; stroke: #b0b0b0; stroke-opacity: 0.3; stroke-width: 0.8; stroke-linecap: square"/>
     </g>
     <g id="line2d_68">
      <g>
       <use xlink:href="#me7cf4edb16" x="45.800781" y="51.765789" style="stroke: #000000; stroke-width: 0.6"/>
      </g>
     </g>
    </g>
    <g id="ytick_24">
     <g id="line2d_69">
      <path d="M 45.800781 44.79314 
L 447.560781 44.79314 
" clip-path="url(#pccf8abdb13)" style="fill: none; stroke: #b0b0b0; stroke-opacity: 0.3; stroke-width: 0.8; stroke-linecap: square"/>
     </g>
     <g id="line2d_70">
      <g>
       <use xlink:href="#me7cf4edb16" x="45.800781" y="44.79314" style="stroke: #000000; stroke-width: 0.6"/>
      </g>
     </g>
    </g>
    <g id="ytick_25">
     <g id="line2d_71">
      <path d="M 45.800781 38.897849 
L 447.560781 38.897849 
" clip-path="url(#pccf8abdb13)" style="fill: none; stroke: #b0b0b0; stroke-opacity: 0.3; stroke-width: 0.8; stroke-linecap: square"/>
     </g>
     <g id="line2d_72">
      <g>
       <use xlink:href="#me7cf4edb16" x="45.800781" y="38.897849" style="stroke: #000000; stroke-width: 0.6"/>
      </g>
     </g>
    </g>
    <g id="ytick_26">
     <g id="line2d_73">
      <path d="M 45.800781 33.791116 
L 447.560781 33.791116 
" clip-path="url(#pccf8abdb13)" style="fill: none; stroke: #b0b0b0; stroke-opacity: 0.3; stroke-width: 0.8; stroke-linecap: square"/>
     </g>
     <g id="line2d_74">
      <g>
       <use xlink:href="#me7cf4edb16" x="45.800781" y="33.791116" style="stroke: #000000; stroke-width: 0.6"/>
      </g>
     </g>
    </g>
    <g id="ytick_27">
     <g id="line2d_75">
      <path d="M 45.800781 29.286658 
L 447.560781 29.286658 
" clip-path="url(#pccf8abdb13)" style="fill: none; stroke: #b0b0b0; stroke-opacity: 0.3; stroke-width: 0.8; stroke-linecap: square"/>
     </g>
     <g id="line2d_76">
      <g>
       <use xlink:href="#me7cf4edb16" x="45.800781" y="29.286658" style="stroke: #000000; stroke-width: 0.6"/>
      </g>
     </g>
    </g>
    <g id="text_16">
     <!-- end-to-end batch p50 (ms, log) -->
     <g transform="translate(14.798438 227.987156) rotate(-90) scale(0.1 -0.1)">
      <defs>
       <path id="DejaVuSans-51" d="M 3513 2113 
L 3513 0 
L 2938 0 
L 2938 2094 
Q 2938 2591 2744 2837 
Q 2550 3084 2163 3084 
Q 1697 3084 1428 2787 
Q 1159 2491 1159 1978 
L 1159 0 
L 581 0 
L 581 3500 
L 1159 3500 
L 1159 2956 
Q 1366 3272 1645 3428 
Q 1925 3584 2291 3584 
Q 2894 3584 3203 3211 
Q 3513 2838 3513 2113 
z
" transform="scale(0.015625)"/>
       <path id="DejaVuSans-47" d="M 2906 2969 
L 2906 4863 
L 3481 4863 
L 3481 0 
L 2906 0 
L 2906 525 
Q 2725 213 2448 61 
Q 2172 -91 1784 -91 
Q 1150 -91 751 415 
Q 353 922 353 1747 
Q 353 2572 751 3078 
Q 1150 3584 1784 3584 
Q 2172 3584 2448 3432 
Q 2725 3281 2906 2969 
z
M 947 1747 
Q 947 1113 1208 752 
Q 1469 391 1925 391 
Q 2381 391 2643 752 
Q 2906 1113 2906 1747 
Q 2906 2381 2643 2742 
Q 2381 3103 1925 3103 
Q 1469 3103 1208 2742 
Q 947 2381 947 1747 
z
" transform="scale(0.015625)"/>
       <path id="DejaVuSans-10" d="M 313 2009 
L 1997 2009 
L 1997 1497 
L 313 1497 
L 313 2009 
z
" transform="scale(0.015625)"/>
       <path id="DejaVuSans-52" d="M 1959 3097 
Q 1497 3097 1228 2736 
Q 959 2375 959 1747 
Q 959 1119 1226 758 
Q 1494 397 1959 397 
Q 2419 397 2687 759 
Q 2956 1122 2956 1747 
Q 2956 2369 2687 2733 
Q 2419 3097 1959 3097 
z
M 1959 3584 
Q 2709 3584 3137 3096 
Q 3566 2609 3566 1747 
Q 3566 888 3137 398 
Q 2709 -91 1959 -91 
Q 1206 -91 779 398 
Q 353 888 353 1747 
Q 353 2609 779 3096 
Q 1206 3584 1959 3584 
z
" transform="scale(0.015625)"/>
       <path id="DejaVuSans-53" d="M 1159 525 
L 1159 -1331 
L 581 -1331 
L 581 3500 
L 1159 3500 
L 1159 2969 
Q 1341 3281 1617 3432 
Q 1894 3584 2278 3584 
Q 2916 3584 3314 3078 
Q 3713 2572 3713 1747 
Q 3713 922 3314 415 
Q 2916 -91 2278 -91 
Q 1894 -91 1617 61 
Q 1341 213 1159 525 
z
M 3116 1747 
Q 3116 2381 2855 2742 
Q 2594 3103 2138 3103 
Q 1681 3103 1420 2742 
Q 1159 2381 1159 1747 
Q 1159 1113 1420 752 
Q 1681 391 2138 391 
Q 2594 391 2855 752 
Q 3116 1113 3116 1747 
z
" transform="scale(0.015625)"/>
       <path id="DejaVuSans-b" d="M 1984 4856 
Q 1566 4138 1362 3434 
Q 1159 2731 1159 2009 
Q 1159 1288 1364 580 
Q 1569 -128 1984 -844 
L 1484 -844 
Q 1016 -109 783 600 
Q 550 1309 550 2009 
Q 550 2706 781 3412 
Q 1013 4119 1484 4856 
L 1984 4856 
z
" transform="scale(0.015625)"/>
       <path id="DejaVuSans-50" d="M 3328 2828 
Q 3544 3216 3844 3400 
Q 4144 3584 4550 3584 
Q 5097 3584 5394 3201 
Q 5691 2819 5691 2113 
L 5691 0 
L 5113 0 
L 5113 2094 
Q 5113 2597 4934 2840 
Q 4756 3084 4391 3084 
Q 3944 3084 3684 2787 
Q 3425 2491 3425 1978 
L 3425 0 
L 2847 0 
L 2847 2094 
Q 2847 2600 2669 2842 
Q 2491 3084 2119 3084 
Q 1678 3084 1418 2786 
Q 1159 2488 1159 1978 
L 1159 0 
L 581 0 
L 581 3500 
L 1159 3500 
L 1159 2956 
Q 1356 3278 1631 3431 
Q 1906 3584 2284 3584 
Q 2666 3584 2933 3390 
Q 3200 3197 3328 2828 
z
" transform="scale(0.015625)"/>
       <path id="DejaVuSans-f" d="M 750 794 
L 1409 794 
L 1409 256 
L 897 -744 
L 494 -744 
L 750 256 
L 750 794 
z
" transform="scale(0.015625)"/>
       <path id="DejaVuSans-4f" d="M 603 4863 
L 1178 4863 
L 1178 0 
L 603 0 
L 603 4863 
z
" transform="scale(0.015625)"/>
       <path id="DejaVuSans-4a" d="M 2906 1791 
Q 2906 2416 2648 2759 
Q 2391 3103 1925 3103 
Q 1463 3103 1205 2759 
Q 947 2416 947 1791 
Q 947 1169 1205 825 
Q 1463 481 1925 481 
Q 2391 481 2648 825 
Q 2906 1169 2906 1791 
z
M 3481 434 
Q 3481 -459 3084 -895 
Q 2688 -1331 1869 -1331 
Q 1566 -1331 1297 -1286 
Q 1028 -1241 775 -1147 
L 775 -588 
Q 1028 -725 1275 -790 
Q 1522 -856 1778 -856 
Q 2344 -856 2625 -561 
Q 2906 -266 2906 331 
L 2906 616 
Q 2728 306 2450 153 
Q 2172 0 1784 0 
Q 1141 0 747 490 
Q 353 981 353 1791 
Q 353 2603 747 3093 
Q 1141 3584 1784 3584 
Q 2172 3584 2450 3431 
Q 2728 3278 2906 2969 
L 2906 3500 
L 3481 3500 
L 3481 434 
z
" transform="scale(0.015625)"/>
       <path id="DejaVuSans-c" d="M 513 4856 
L 1013 4856 
Q 1481 4119 1714 3412 
Q 1947 2706 1947 2009 
Q 1947 1309 1714 600 
Q 1481 -109 1013 -844 
L 513 -844 
Q 928 -128 1133 580 
Q 1338 1288 1338 2009 
Q 1338 2731 1133 3434 
Q 928 4138 513 4856 
z
" transform="scale(0.015625)"/>
      </defs>
      <use xlink:href="#DejaVuSans-48"/>
      <use xlink:href="#DejaVuSans-51" transform="translate(61.53125 0)"/>
      <use xlink:href="#DejaVuSans-47" transform="translate(124.90625 0)"/>
      <use xlink:href="#DejaVuSans-10" transform="translate(188.390625 0)"/>
      <use xlink:href="#DejaVuSans-57" transform="translate(224.46875 0)"/>
      <use xlink:href="#DejaVuSans-52" transform="translate(263.671875 0)"/>
      <use xlink:href="#DejaVuSans-10" transform="translate(326.71875 0)"/>
      <use xlink:href="#DejaVuSans-48" transform="translate(362.796875 0)"/>
      <use xlink:href="#DejaVuSans-51" transform="translate(424.328125 0)"/>
      <use xlink:href="#DejaVuSans-47" transform="translate(487.703125 0)"/>
      <use xlink:href="#DejaVuSans-3" transform="translate(551.1875 0)"/>
      <use xlink:href="#DejaVuSans-45" transform="translate(582.96875 0)"/>
      <use xlink:href="#DejaVuSans-44" transform="translate(646.453125 0)"/>
      <use xlink:href="#DejaVuSans-57" transform="translate(707.734375 0)"/>
      <use xlink:href="#DejaVuSans-46" transform="translate(746.9375 0)"/>
      <use xlink:href="#DejaVuSans-4b" transform="translate(801.921875 0)"/>
      <use xlink:href="#DejaVuSans-3" transform="translate(865.296875 0)"/>
      <use xlink:href="#DejaVuSans-53" transform="translate(897.078125 0)"/>
      <use xlink:href="#DejaVuSans-18" transform="translate(960.5625 0)"/>
      <use xlink:href="#DejaVuSans-13" transform="translate(1024.1875 0)"/>
      <use xlink:href="#DejaVuSans-3" transform="translate(1087.8125 0)"/>
      <use xlink:href="#DejaVuSans-b" transform="translate(1119.59375 0)"/>
      <use xlink:href="#DejaVuSans-50" transform="translate(1158.609375 0)"/>
      <use xlink:href="#DejaVuSans-56" transform="translate(1256.015625 0)"/>
      <use xlink:href="#DejaVuSans-f" transform="translate(1308.109375 0)"/>
      <use xlink:href="#DejaVuSans-3" transform="translate(1339.890625 0)"/>
      <use xlink:href="#DejaVuSans-4f" transform="translate(1371.671875 0)"/>
      <use xlink:href="#DejaVuSans-52" transform="translate(1399.453125 0)"/>
      <use xlink:href="#DejaVuSans-4a" transform="translate(1460.640625 0)"/>
      <use xlink:href="#DejaVuSans-c" transform="translate(1524.125 0)"/>
     </g>
    </g>
   </g>
   <g id="line2d_77">
    <path d="M 64.062599 259.606571 
L 100.586236 247.745931 
L 137.109872 230.487583 
L 173.633509 210.991357 
L 210.157145 188.669237 
L 246.680781 165.131069 
L 283.204418 140.063071 
L 319.728054 114.052313 
L 356.25169 87.924991 
L 392.775327 61.487557 
L 429.298963 33.910125 
" clip-path="url(#pccf8abdb13)" style="fill: none; stroke-dasharray: 5.55,2.4; stroke-dashoffset: 0; stroke: #f2a6a3; stroke-width: 1.5"/>
    <defs>
     <path id="m9e629f1ad8" d="M 0 3 
C 0.795609 3 1.55874 2.683901 2.12132 2.12132 
C 2.683901 1.55874 3 0.795609 3 0 
C 3 -0.795609 2.683901 -1.55874 2.12132 -2.12132 
C 1.55874 -2.683901 0.795609 -3 0 -3 
C -0.795609 -3 -1.55874 -2.683901 -2.12132 -2.12132 
C -2.683901 -1.55874 -3 -0.795609 -3 0 
C -3 0.795609 -2.683901 1.55874 -2.12132 2.12132 
C -1.55874 2.683901 -0.795609 3 0 3 
z
" style="stroke: #f2a6a3"/>
    </defs>
    <g clip-path="url(#pccf8abdb13)">
     <use xlink:href="#m9e629f1ad8" x="64.062599" y="259.606571" style="fill: #f2a6a3; stroke: #f2a6a3"/>
     <use xlink:href="#m9e629f1ad8" x="100.586236" y="247.745931" style="fill: #f2a6a3; stroke: #f2a6a3"/>
     <use xlink:href="#m9e629f1ad8" x="137.109872" y="230.487583" style="fill: #f2a6a3; stroke: #f2a6a3"/>
     <use xlink:href="#m9e629f1ad8" x="173.633509" y="210.991357" style="fill: #f2a6a3; stroke: #f2a6a3"/>
     <use xlink:href="#m9e629f1ad8" x="210.157145" y="188.669237" style="fill: #f2a6a3; stroke: #f2a6a3"/>
     <use xlink:href="#m9e629f1ad8" x="246.680781" y="165.131069" style="fill: #f2a6a3; stroke: #f2a6a3"/>
     <use xlink:href="#m9e629f1ad8" x="283.204418" y="140.063071" style="fill: #f2a6a3; stroke: #f2a6a3"/>
     <use xlink:href="#m9e629f1ad8" x="319.728054" y="114.052313" style="fill: #f2a6a3; stroke: #f2a6a3"/>
     <use xlink:href="#m9e629f1ad8" x="356.25169" y="87.924991" style="fill: #f2a6a3; stroke: #f2a6a3"/>
     <use xlink:href="#m9e629f1ad8" x="392.775327" y="61.487557" style="fill: #f2a6a3; stroke: #f2a6a3"/>
     <use xlink:href="#m9e629f1ad8" x="429.298963" y="33.910125" style="fill: #f2a6a3; stroke: #f2a6a3"/>
    </g>
   </g>
   <g id="line2d_78">
    <path d="M 64.062599 260.890338 
L 100.586236 265.750125 
L 137.109872 243.258152 
L 173.633509 218.920484 
L 210.157145 193.455923 
L 246.680781 167.40875 
L 283.204418 141.748173 
L 319.728054 115.157681 
L 356.25169 88.863841 
L 392.775327 62.54844 
L 429.298963 35.983915 
" clip-path="url(#pccf8abdb13)" style="fill: none; stroke: #c44e52; stroke-width: 1.5; stroke-linecap: square"/>
    <defs>
     <path id="mec7d285401" d="M -3 3 
L 3 3 
L 3 -3 
L -3 -3 
z
" style="stroke: #c44e52; stroke-linejoin: miter"/>
    </defs>
    <g clip-path="url(#pccf8abdb13)">
     <use xlink:href="#mec7d285401" x="64.062599" y="260.890338" style="fill: #c44e52; stroke: #c44e52; stroke-linejoin: miter"/>
     <use xlink:href="#mec7d285401" x="100.586236" y="265.750125" style="fill: #c44e52; stroke: #c44e52; stroke-linejoin: miter"/>
     <use xlink:href="#mec7d285401" x="137.109872" y="243.258152" style="fill: #c44e52; stroke: #c44e52; stroke-linejoin: miter"/>
     <use xlink:href="#mec7d285401" x="173.633509" y="218.920484" style="fill: #c44e52; stroke: #c44e52; stroke-linejoin: miter"/>
     <use xlink:href="#mec7d285401" x="210.157145" y="193.455923" style="fill: #c44e52; stroke: #c44e52; stroke-linejoin: miter"/>
     <use xlink:href="#mec7d285401" x="246.680781" y="167.40875" style="fill: #c44e52; stroke: #c44e52; stroke-linejoin: miter"/>
     <use xlink:href="#mec7d285401" x="283.204418" y="141.748173" style="fill: #c44e52; stroke: #c44e52; stroke-linejoin: miter"/>
     <use xlink:href="#mec7d285401" x="319.728054" y="115.157681" style="fill: #c44e52; stroke: #c44e52; stroke-linejoin: miter"/>
     <use xlink:href="#mec7d285401" x="356.25169" y="88.863841" style="fill: #c44e52; stroke: #c44e52; stroke-linejoin: miter"/>
     <use xlink:href="#mec7d285401" x="392.775327" y="62.54844" style="fill: #c44e52; stroke: #c44e52; stroke-linejoin: miter"/>
     <use xlink:href="#mec7d285401" x="429.298963" y="35.983915" style="fill: #c44e52; stroke: #c44e52; stroke-linejoin: miter"/>
    </g>
   </g>
   <g id="line2d_79">
    <path d="M 64.062599 256.686403 
L 100.586236 243.575476 
L 137.109872 226.66026 
L 173.633509 207.412398 
L 210.157145 184.113089 
L 246.680781 163.853286 
L 283.204418 138.770622 
L 319.728054 112.559104 
L 356.25169 86.841559 
L 392.775327 60.500533 
L 429.298963 34.894939 
" clip-path="url(#pccf8abdb13)" style="fill: none; stroke-dasharray: 5.55,2.4; stroke-dashoffset: 0; stroke: #9ecae1; stroke-width: 1.5"/>
    <defs>
     <path id="m75bb7a9322" d="M 0 3 
C 0.795609 3 1.55874 2.683901 2.12132 2.12132 
C 2.683901 1.55874 3 0.795609 3 0 
C 3 -0.795609 2.683901 -1.55874 2.12132 -2.12132 
C 1.55874 -2.683901 0.795609 -3 0 -3 
C -0.795609 -3 -1.55874 -2.683901 -2.12132 -2.12132 
C -2.683901 -1.55874 -3 -0.795609 -3 0 
C -3 0.795609 -2.683901 1.55874 -2.12132 2.12132 
C -1.55874 2.683901 -0.795609 3 0 3 
z
" style="stroke: #9ecae1"/>
    </defs>
    <g clip-path="url(#pccf8abdb13)">
     <use xlink:href="#m75bb7a9322" x="64.062599" y="256.686403" style="fill: #9ecae1; stroke: #9ecae1"/>
     <use xlink:href="#m75bb7a9322" x="100.586236" y="243.575476" style="fill: #9ecae1; stroke: #9ecae1"/>
     <use xlink:href="#m75bb7a9322" x="137.109872" y="226.66026" style="fill: #9ecae1; stroke: #9ecae1"/>
     <use xlink:href="#m75bb7a9322" x="173.633509" y="207.412398" style="fill: #9ecae1; stroke: #9ecae1"/>
     <use xlink:href="#m75bb7a9322" x="210.157145" y="184.113089" style="fill: #9ecae1; stroke: #9ecae1"/>
     <use xlink:href="#m75bb7a9322" x="246.680781" y="163.853286" style="fill: #9ecae1; stroke: #9ecae1"/>
     <use xlink:href="#m75bb7a9322" x="283.204418" y="138.770622" style="fill: #9ecae1; stroke: #9ecae1"/>
     <use xlink:href="#m75bb7a9322" x="319.728054" y="112.559104" style="fill: #9ecae1; stroke: #9ecae1"/>
     <use xlink:href="#m75bb7a9322" x="356.25169" y="86.841559" style="fill: #9ecae1; stroke: #9ecae1"/>
     <use xlink:href="#m75bb7a9322" x="392.775327" y="60.500533" style="fill: #9ecae1; stroke: #9ecae1"/>
     <use xlink:href="#m75bb7a9322" x="429.298963" y="34.894939" style="fill: #9ecae1; stroke: #9ecae1"/>
    </g>
   </g>
   <g id="line2d_80">
    <path d="M 64.062599 256.105081 
L 100.586236 258.977161 
L 137.109872 238.322522 
L 173.633509 212.985145 
L 210.157145 192.287302 
L 246.680781 165.914544 
L 283.204418 139.046593 
L 319.728054 114.261229 
L 356.25169 88.609683 
L 392.775327 62.02609 
L 429.298963 34.400465 
" clip-path="url(#pccf8abdb13)" style="fill: none; stroke: #4c72b0; stroke-width: 1.5; stroke-linecap: square"/>
    <defs>
     <path id="mde2ac0e051" d="M -3 3 
L 3 3 
L 3 -3 
L -3 -3 
z
" style="stroke: #4c72b0; stroke-linejoin: miter"/>
    </defs>
    <g clip-path="url(#pccf8abdb13)">
     <use xlink:href="#mde2ac0e051" x="64.062599" y="256.105081" style="fill: #4c72b0; stroke: #4c72b0; stroke-linejoin: miter"/>
     <use xlink:href="#mde2ac0e051" x="100.586236" y="258.977161" style="fill: #4c72b0; stroke: #4c72b0; stroke-linejoin: miter"/>
     <use xlink:href="#mde2ac0e051" x="137.109872" y="238.322522" style="fill: #4c72b0; stroke: #4c72b0; stroke-linejoin: miter"/>
     <use xlink:href="#mde2ac0e051" x="173.633509" y="212.985145" style="fill: #4c72b0; stroke: #4c72b0; stroke-linejoin: miter"/>
     <use xlink:href="#mde2ac0e051" x="210.157145" y="192.287302" style="fill: #4c72b0; stroke: #4c72b0; stroke-linejoin: miter"/>
     <use xlink:href="#mde2ac0e051" x="246.680781" y="165.914544" style="fill: #4c72b0; stroke: #4c72b0; stroke-linejoin: miter"/>
     <use xlink:href="#mde2ac0e051" x="283.204418" y="139.046593" style="fill: #4c72b0; stroke: #4c72b0; stroke-linejoin: miter"/>
     <use xlink:href="#mde2ac0e051" x="319.728054" y="114.261229" style="fill: #4c72b0; stroke: #4c72b0; stroke-linejoin: miter"/>
     <use xlink:href="#mde2ac0e051" x="356.25169" y="88.609683" style="fill: #4c72b0; stroke: #4c72b0; stroke-linejoin: miter"/>
     <use xlink:href="#mde2ac0e051" x="392.775327" y="62.02609" style="fill: #4c72b0; stroke: #4c72b0; stroke-linejoin: miter"/>
     <use xlink:href="#mde2ac0e051" x="429.298963" y="34.400465" style="fill: #4c72b0; stroke: #4c72b0; stroke-linejoin: miter"/>
    </g>
   </g>
   <g id="patch_3">
    <path d="M 45.800781 277.342125 
L 45.800781 22.318125 
" style="fill: none; stroke: #000000; stroke-width: 0.8; stroke-linejoin: miter; stroke-linecap: square"/>
   </g>
   <g id="patch_4">
    <path d="M 447.560781 277.342125 
L 447.560781 22.318125 
" style="fill: none; stroke: #000000; stroke-width: 0.8; stroke-linejoin: miter; stroke-linecap: square"/>
   </g>
   <g id="patch_5">
    <path d="M 45.800781 277.342125 
L 447.560781 277.342125 
" style="fill: none; stroke: #000000; stroke-width: 0.8; stroke-linejoin: miter; stroke-linecap: square"/>
   </g>
   <g id="patch_6">
    <path d="M 45.800781 22.318125 
L 447.560781 22.318125 
" style="fill: none; stroke: #000000; stroke-width: 0.8; stroke-linejoin: miter; stroke-linecap: square"/>
   </g>
   <g id="text_17">
    <!-- End-to-end batch latency, including query embedding -->
    <g transform="translate(84.508281 16.318125) scale(0.12 -0.12)">
     <defs>
      <path id="DejaVuSans-28" d="M 628 4666 
L 3578 4666 
L 3578 4134 
L 1259 4134 
L 1259 2753 
L 3481 2753 
L 3481 2222 
L 1259 2222 
L 1259 531 
L 3634 531 
L 3634 0 
L 628 0 
L 628 4666 
z
" transform="scale(0.015625)"/>
     </defs>
     <use xlink:href="#DejaVuSans-28"/>
     <use xlink:href="#DejaVuSans-51" transform="translate(63.1875 0)"/>
     <use xlink:href="#DejaVuSans-47" transform="translate(126.5625 0)"/>
     <use xlink:href="#DejaVuSans-10" transform="translate(190.046875 0)"/>
     <use xlink:href="#DejaVuSans-57" transform="translate(226.125 0)"/>
     <use xlink:href="#DejaVuSans-52" transform="translate(265.328125 0)"/>
     <use xlink:href="#DejaVuSans-10" transform="translate(328.375 0)"/>
     <use xlink:href="#DejaVuSans-48" transform="translate(364.453125 0)"/>
     <use xlink:href="#DejaVuSans-51" transform="translate(425.984375 0)"/>
     <use xlink:href="#DejaVuSans-47" transform="translate(489.359375 0)"/>
     <use xlink:href="#DejaVuSans-3" transform="translate(552.84375 0)"/>
     <use xlink:href="#DejaVuSans-45" transform="translate(584.625 0)"/>
     <use xlink:href="#DejaVuSans-44" transform="translate(648.109375 0)"/>
     <use xlink:href="#DejaVuSans-57" transform="translate(709.390625 0)"/>
     <use xlink:href="#DejaVuSans-46" transform="translate(748.59375 0)"/>
     <use xlink:href="#DejaVuSans-4b" transform="translate(803.578125 0)"/>
     <use xlink:href="#DejaVuSans-3" transform="translate(866.953125 0)"/>
     <use xlink:href="#DejaVuSans-4f" transform="translate(898.734375 0)"/>
     <use xlink:href="#DejaVuSans-44" transform="translate(926.515625 0)"/>
     <use xlink:href="#DejaVuSans-57" transform="translate(987.796875 0)"/>
     <use xlink:href="#DejaVuSans-48" transform="translate(1027 0)"/>
     <use xlink:href="#DejaVuSans-51" transform="translate(1088.53125 0)"/>
     <use xlink:href="#DejaVuSans-46" transform="translate(1151.90625 0)"/>
     <use xlink:href="#DejaVuSans-5c" transform="translate(1206.890625 0)"/>
     <use xlink:href="#DejaVuSans-f" transform="translate(1266.078125 0)"/>
     <use xlink:href="#DejaVuSans-3" transform="translate(1297.859375 0)"/>
     <use xlink:href="#DejaVuSans-4c" transform="translate(1329.640625 0)"/>
     <use xlink:href="#DejaVuSans-51" transform="translate(1357.421875 0)"/>
     <use xlink:href="#DejaVuSans-46" transform="translate(1420.796875 0)"/>
     <use xlink:href="#DejaVuSans-4f" transform="translate(1475.78125 0)"/>
     <use xlink:href="#DejaVuSans-58" transform="translate(1503.5625 0)"/>
     <use xlink:href="#DejaVuSans-47" transform="translate(1566.9375 0)"/>
     <use xlink:href="#DejaVuSans-4c" transform="translate(1630.421875 0)"/>
     <use xlink:href="#DejaVuSans-51" transform="translate(1658.203125 0)"/>
     <use xlink:href="#DejaVuSans-4a" transform="translate(1721.578125 0)"/>
     <use xlink:href="#DejaVuSans-3" transform="translate(1785.0625 0)"/>
     <use xlink:href="#DejaVuSans-54" transform="translate(1816.84375 0)"/>
     <use xlink:href="#DejaVuSans-58" transform="translate(1880.328125 0)"/>
     <use xlink:href="#DejaVuSans-48" transform="translate(1943.703125 0)"/>
     <use xlink:href="#DejaVuSans-55" transform="translate(2005.234375 0)"/>
     <use xlink:href="#DejaVuSans-5c" transform="translate(2046.34375 0)"/>
     <use xlink:href="#DejaVuSans-3" transform="translate(2105.53125 0)"/>
     <use xlink:href="#DejaVuSans-48" transform="translate(2137.3125 0)"/>
     <use xlink:href="#DejaVuSans-50" transform="translate(2198.84375 0)"/>
     <use xlink:href="#DejaVuSans-45" transform="translate(2296.25 0)"/>
     <use xlink:href="#DejaVuSans-48" transform="translate(2359.734375 0)"/>
     <use xlink:href="#DejaVuSans-47" transform="translate(2421.265625 0)"/>
     <use xlink:href="#DejaVuSans-47" transform="translate(2484.75 0)"/>
     <use xlink:href="#DejaVuSans-4c" transform="translate(2548.234375 0)"/>
     <use xlink:href="#DejaVuSans-51" transform="translate(2576.015625 0)"/>
     <use xlink:href="#DejaVuSans-4a" transform="translate(2639.390625 0)"/>
    </g>
   </g>
   <g id="legend_1">
    <g id="patch_7">
     <path d="M 51.400781 76.720625 
L 142.232031 76.720625 
Q 143.832031 76.720625 143.832031 75.120625 
L 143.832031 27.918125 
Q 143.832031 26.318125 142.232031 26.318125 
L 51.400781 26.318125 
Q 49.800781 26.318125 49.800781 27.918125 
L 49.800781 75.120625 
Q 49.800781 76.720625 51.400781 76.720625 
z
" style="fill: #ffffff; opacity: 0.8; stroke: #cccccc; stroke-linejoin: miter"/>
    </g>
    <g id="line2d_81">
     <path d="M 53.000781 32.796875 
L 61.000781 32.796875 
L 69.000781 32.796875 
" style="fill: none; stroke-dasharray: 5.55,2.4; stroke-dashoffset: 0; stroke: #f2a6a3; stroke-width: 1.5"/>
     <g>
      <use xlink:href="#m9e629f1ad8" x="61.000781" y="32.796875" style="fill: #f2a6a3; stroke: #f2a6a3"/>
     </g>
    </g>
    <g id="text_18">
     <!-- L40S CPU policy -->
     <g transform="translate(75.400781 35.596875) scale(0.08 -0.08)">
      <defs>
       <path id="DejaVuSans-2f" d="M 628 4666 
L 1259 4666 
L 1259 531 
L 3531 531 
L 3531 0 
L 628 0 
L 628 4666 
z
" transform="scale(0.015625)"/>
       <path id="DejaVuSans-36" d="M 3425 4513 
L 3425 3897 
Q 3066 4069 2747 4153 
Q 2428 4238 2131 4238 
Q 1616 4238 1336 4038 
Q 1056 3838 1056 3469 
Q 1056 3159 1242 3001 
Q 1428 2844 1947 2747 
L 2328 2669 
Q 3034 2534 3370 2195 
Q 3706 1856 3706 1288 
Q 3706 609 3251 259 
Q 2797 -91 1919 -91 
Q 1588 -91 1214 -16 
Q 841 59 441 206 
L 441 856 
Q 825 641 1194 531 
Q 1563 422 1919 422 
Q 2459 422 2753 634 
Q 3047 847 3047 1241 
Q 3047 1584 2836 1778 
Q 2625 1972 2144 2069 
L 1759 2144 
Q 1053 2284 737 2584 
Q 422 2884 422 3419 
Q 422 4038 858 4394 
Q 1294 4750 2059 4750 
Q 2388 4750 2728 4690 
Q 3069 4631 3425 4513 
z
" transform="scale(0.015625)"/>
       <path id="DejaVuSans-26" d="M 4122 4306 
L 4122 3641 
Q 3803 3938 3442 4084 
Q 3081 4231 2675 4231 
Q 1875 4231 1450 3742 
Q 1025 3253 1025 2328 
Q 1025 1406 1450 917 
Q 1875 428 2675 428 
Q 3081 428 3442 575 
Q 3803 722 4122 1019 
L 4122 359 
Q 3791 134 3420 21 
Q 3050 -91 2638 -91 
Q 1578 -91 968 557 
Q 359 1206 359 2328 
Q 359 3453 968 4101 
Q 1578 4750 2638 4750 
Q 3056 4750 3426 4639 
Q 3797 4528 4122 4306 
z
" transform="scale(0.015625)"/>
       <path id="DejaVuSans-33" d="M 1259 4147 
L 1259 2394 
L 2053 2394 
Q 2494 2394 2734 2622 
Q 2975 2850 2975 3272 
Q 2975 3691 2734 3919 
Q 2494 4147 2053 4147 
L 1259 4147 
z
M 628 4666 
L 2053 4666 
Q 2838 4666 3239 4311 
Q 3641 3956 3641 3272 
Q 3641 2581 3239 2228 
Q 2838 1875 2053 1875 
L 1259 1875 
L 1259 0 
L 628 0 
L 628 4666 
z
" transform="scale(0.015625)"/>
       <path id="DejaVuSans-38" d="M 556 4666 
L 1191 4666 
L 1191 1831 
Q 1191 1081 1462 751 
Q 1734 422 2344 422 
Q 2950 422 3222 751 
Q 3494 1081 3494 1831 
L 3494 4666 
L 4128 4666 
L 4128 1753 
Q 4128 841 3676 375 
Q 3225 -91 2344 -91 
Q 1459 -91 1007 375 
Q 556 841 556 1753 
L 556 4666 
z
" transform="scale(0.015625)"/>
      </defs>
      <use xlink:href="#DejaVuSans-2f"/>
      <use xlink:href="#DejaVuSans-17" transform="translate(55.71875 0)"/>
      <use xlink:href="#DejaVuSans-13" transform="translate(119.34375 0)"/>
      <use xlink:href="#DejaVuSans-36" transform="translate(182.96875 0)"/>
      <use xlink:href="#DejaVuSans-3" transform="translate(246.453125 0)"/>
      <use xlink:href="#DejaVuSans-26" transform="translate(278.234375 0)"/>
      <use xlink:href="#DejaVuSans-33" transform="translate(348.0625 0)"/>
      <use xlink:href="#DejaVuSans-38" transform="translate(408.359375 0)"/>
      <use xlink:href="#DejaVuSans-3" transform="translate(481.546875 0)"/>
      <use xlink:href="#DejaVuSans-53" transform="translate(513.328125 0)"/>
      <use xlink:href="#DejaVuSans-52" transform="translate(576.8125 0)"/>
      <use xlink:href="#DejaVuSans-4f" transform="translate(638 0)"/>
      <use xlink:href="#DejaVuSans-4c" transform="translate(665.78125 0)"/>
      <use xlink:href="#DejaVuSans-46" transform="translate(693.5625 0)"/>
      <use xlink:href="#DejaVuSans-5c" transform="translate(748.546875 0)"/>
     </g>
    </g>
    <g id="line2d_82">
     <path d="M 53.000781 44.7975 
L 61.000781 44.7975 
L 69.000781 44.7975 
" style="fill: none; stroke: #c44e52; stroke-width: 1.5; stroke-linecap: square"/>
     <g>
      <use xlink:href="#mec7d285401" x="61.000781" y="44.7975" style="fill: #c44e52; stroke: #c44e52; stroke-linejoin: miter"/>
     </g>
    </g>
    <g id="text_19">
     <!-- L40S GPU policy -->
     <g transform="translate(75.400781 47.5975) scale(0.08 -0.08)">
      <defs>
       <path id="DejaVuSans-2a" d="M 3809 666 
L 3809 1919 
L 2778 1919 
L 2778 2438 
L 4434 2438 
L 4434 434 
Q 4069 175 3628 42 
Q 3188 -91 2688 -91 
Q 1594 -91 976 548 
Q 359 1188 359 2328 
Q 359 3472 976 4111 
Q 1594 4750 2688 4750 
Q 3144 4750 3555 4637 
Q 3966 4525 4313 4306 
L 4313 3634 
Q 3963 3931 3569 4081 
Q 3175 4231 2741 4231 
Q 1884 4231 1454 3753 
Q 1025 3275 1025 2328 
Q 1025 1384 1454 906 
Q 1884 428 2741 428 
Q 3075 428 3337 486 
Q 3600 544 3809 666 
z
" transform="scale(0.015625)"/>
      </defs>
      <use xlink:href="#DejaVuSans-2f"/>
      <use xlink:href="#DejaVuSans-17" transform="translate(55.71875 0)"/>
      <use xlink:href="#DejaVuSans-13" transform="translate(119.34375 0)"/>
      <use xlink:href="#DejaVuSans-36" transform="translate(182.96875 0)"/>
      <use xlink:href="#DejaVuSans-3" transform="translate(246.453125 0)"/>
      <use xlink:href="#DejaVuSans-2a" transform="translate(278.234375 0)"/>
      <use xlink:href="#DejaVuSans-33" transform="translate(355.71875 0)"/>
      <use xlink:href="#DejaVuSans-38" transform="translate(416.015625 0)"/>
      <use xlink:href="#DejaVuSans-3" transform="translate(489.203125 0)"/>
      <use xlink:href="#DejaVuSans-53" transform="translate(520.984375 0)"/>
      <use xlink:href="#DejaVuSans-52" transform="translate(584.46875 0)"/>
      <use xlink:href="#DejaVuSans-4f" transform="translate(645.65625 0)"/>
      <use xlink:href="#DejaVuSans-4c" transform="translate(673.4375 0)"/>
      <use xlink:href="#DejaVuSans-46" transform="translate(701.21875 0)"/>
      <use xlink:href="#DejaVuSans-5c" transform="translate(756.203125 0)"/>
     </g>
    </g>
    <g id="line2d_83">
     <path d="M 53.000781 56.798125 
L 61.000781 56.798125 
L 69.000781 56.798125 
" style="fill: none; stroke-dasharray: 5.55,2.4; stroke-dashoffset: 0; stroke: #9ecae1; stroke-width: 1.5"/>
     <g>
      <use xlink:href="#m75bb7a9322" x="61.000781" y="56.798125" style="fill: #9ecae1; stroke: #9ecae1"/>
     </g>
    </g>
    <g id="text_20">
     <!-- A10 CPU policy -->
     <g transform="translate(75.400781 59.598125) scale(0.08 -0.08)">
      <defs>
       <path id="DejaVuSans-24" d="M 2188 4044 
L 1331 1722 
L 3047 1722 
L 2188 4044 
z
M 1831 4666 
L 2547 4666 
L 4325 0 
L 3669 0 
L 3244 1197 
L 1141 1197 
L 716 0 
L 50 0 
L 1831 4666 
z
" transform="scale(0.015625)"/>
      </defs>
      <use xlink:href="#DejaVuSans-24"/>
      <use xlink:href="#DejaVuSans-14" transform="translate(68.40625 0)"/>
      <use xlink:href="#DejaVuSans-13" transform="translate(132.03125 0)"/>
      <use xlink:href="#DejaVuSans-3" transform="translate(195.65625 0)"/>
      <use xlink:href="#DejaVuSans-26" transform="translate(227.4375 0)"/>
      <use xlink:href="#DejaVuSans-33" transform="translate(297.265625 0)"/>
      <use xlink:href="#DejaVuSans-38" transform="translate(357.5625 0)"/>
      <use xlink:href="#DejaVuSans-3" transform="translate(430.75 0)"/>
      <use xlink:href="#DejaVuSans-53" transform="translate(462.53125 0)"/>
      <use xlink:href="#DejaVuSans-52" transform="translate(526.015625 0)"/>
      <use xlink:href="#DejaVuSans-4f" transform="translate(587.203125 0)"/>
      <use xlink:href="#DejaVuSans-4c" transform="translate(614.984375 0)"/>
      <use xlink:href="#DejaVuSans-46" transform="translate(642.765625 0)"/>
      <use xlink:href="#DejaVuSans-5c" transform="translate(697.75 0)"/>
     </g>
    </g>
    <g id="line2d_84">
     <path d="M 53.000781 68.79875 
L 61.000781 68.79875 
L 69.000781 68.79875 
" style="fill: none; stroke: #4c72b0; stroke-width: 1.5; stroke-linecap: square"/>
     <g>
      <use xlink:href="#mde2ac0e051" x="61.000781" y="68.79875" style="fill: #4c72b0; stroke: #4c72b0; stroke-linejoin: miter"/>
     </g>
    </g>
    <g id="text_21">
     <!-- A10 GPU policy -->
     <g transform="translate(75.400781 71.59875) scale(0.08 -0.08)">
      <use xlink:href="#DejaVuSans-24"/>
      <use xlink:href="#DejaVuSans-14" transform="translate(68.40625 0)"/>
      <use xlink:href="#DejaVuSans-13" transform="translate(132.03125 0)"/>
      <use xlink:href="#DejaVuSans-3" transform="translate(195.65625 0)"/>
      <use xlink:href="#DejaVuSans-2a" transform="translate(227.4375 0)"/>
      <use xlink:href="#DejaVuSans-33" transform="translate(304.921875 0)"/>
      <use xlink:href="#DejaVuSans-38" transform="translate(365.21875 0)"/>
      <use xlink:href="#DejaVuSans-3" transform="translate(438.40625 0)"/>
      <use xlink:href="#DejaVuSans-53" transform="translate(470.1875 0)"/>
      <use xlink:href="#DejaVuSans-52" transform="translate(533.671875 0)"/>
      <use xlink:href="#DejaVuSans-4f" transform="translate(594.859375 0)"/>
      <use xlink:href="#DejaVuSans-4c" transform="translate(622.640625 0)"/>
      <use xlink:href="#DejaVuSans-46" transform="translate(650.421875 0)"/>
      <use xlink:href="#DejaVuSans-5c" transform="translate(705.40625 0)"/>
     </g>
    </g>
   </g>
  </g>
 </g>
 <defs>
  <clipPath id="pccf8abdb13">
   <rect x="45.800781" y="22.318125" width="401.76" height="255.024"/>
  </clipPath>
 </defs>
</svg>
